<svg xmlns="http://www.w3.org/2000/svg" width="510" height="510" viewBox="0 0 510 510">
    <defs>
        <style>
            g {
                display: none;
            }
            g:target {
                display: inline;
            }
        </style>
    </defs>
    <g id="photo" fill="#FFFFFF">
        <path d="M526.8 131c-14.3-14.3-31.5-21.4-51.7-21.4h-64l-14.6-38.8c-3.6-9.3-10.2-17.4-19.8-24.1 -9.6-6.8-19.5-10.1-29.6-10.1H201c-10.1 0-19.9 3.4-29.6 10.1 -9.6 6.8-16.2 14.8-19.8 24.1l-14.6 38.8H73.1c-20.2 0-37.4 7.1-51.7 21.4C7.1 145.3 0 162.5 0 182.7v255.8c0 20.2 7.1 37.4 21.4 51.7 14.3 14.3 31.5 21.4 51.7 21.4h402c20.2 0 37.4-7.1 51.7-21.4 14.3-14.3 21.4-31.5 21.4-51.7V182.7C548.2 162.5 541 145.3 526.8 131zM364.4 401c-25 25-55.1 37.5-90.4 37.5s-65.3-12.5-90.4-37.5c-25-25-37.5-55.2-37.5-90.4 0-35.2 12.5-65.3 37.5-90.4 25-25 55.1-37.5 90.4-37.5s65.3 12.5 90.4 37.5c25 25 37.5 55.1 37.5 90.4C402 345.8 389.5 376 364.4 401z"/>
        <path d="M274.1 228.4c-22.7 0-42 8-58.1 24.1 -16.1 16.1-24.1 35.4-24.1 58.1 0 22.6 8 42 24.1 58.1 16.1 16.1 35.5 24.1 58.1 24.1 22.6 0 42-8 58.1-24.1 16.1-16.1 24.1-35.4 24.1-58.1 0-22.7-8-42-24.1-58.1C316.1 236.4 296.7 228.4 274.1 228.4z"/>

    </g>
    <g class="sales" fill="#FFFFFF">
        <path d="M139.2 124.5c12.4-13.4 19.2-31.4 19.2-50.7C158.4 37.1 132.2 0 82.1 0 58.8 0 39.1 8 25.2 23.2 12.9 36.6 6.2 54.6 6.2 73.8c0 36.7 26.1 73.8 76 73.8C105.5 147.6 125.3 139.6 139.2 124.5zM82.1 34.3c27.4 0 39.9 20.5 39.9 39.5 0 10.4-3.5 19.9-9.8 27 -7.1 7.9-17.3 12-29.7 12 -28.1 0-41-20.5-41-39.5C41.6 53.9 54.1 34.3 82.1 34.3z"/>
        <path d="M264.3 28.5c-4.5 0.1-10.7 2.9-13.8 6.3L25.2 285.3c-3 3.4-0.9 8.1 3.7 8.1h29.5c4.5 0 10.7-2.8 13.8-6.1L296 36.8c3-3.4 2.8-8.9-4.7-8.9L264.3 28.5z"/>
        <path d="M239.6 175.8c-22.9 0-42.1 7.9-55.8 22.7 -12.1 13.2-18.7 30.8-18.7 49.7 0 36 25.6 72.4 74.5 72.4 23 0 42.3-7.8 56-22.7 12.1-13.2 18.8-30.8 18.8-49.7C314.5 212.3 288.8 175.8 239.6 175.8zM240.1 287.4c-27.4 0-39.8-20.6-39.8-39.6 0-10.4 3.5-20 9.8-27.1 7.1-7.9 17.3-12.1 29.6-12.1 27.4 0 39.8 20.6 39.8 39.7 0 10.4-3.5 20-9.8 27.1C262.6 283.2 252.4 287.4 240.1 287.4z"/>
    </g>
    <g id="video" fill="#FFFFFF">
        <polygon points="38.3 0 38.3 357 318.8 178.5 "/>
    </g>
</svg>