<svg xmlns="http://www.w3.org/2000/svg" viewBox="0 0 496 496">
    <g fill="#bec941">
        <path d="M432.2 97c-6.9-7.1-15.3-12.1-24.5-14.8C404.8 49.6 377.4 24 344 24c-3 0-6 0.2-9.6 0.7C324.4 9.8 307.3 0 288 0c-18.7 0-36 9.3-46.5 24.8 -3.1-0.5-6.3-0.8-9.5-0.8 -33.4 0-60.8 25.7-63.7 58.3 -19.4 5.6-34.9 21.8-39 41.7 -1.7 8.2-1.6 16.4 0.2 24.2 -15 16.9-25.9 36.4-32.5 58.1L93.3 218.4c-8.1 27.1-23 52-43 72 -3.1 3.1-3.1 8.2 0 11.3l3.7 3.7c21.9 21.9 33.9 50.9 33.9 81.9 0 29.1 23.7 52.7 52.7 52.7 8.7 0 17.3-2.2 25-6.3l18.3-9.8V496h152v-57.2c0-28.9 9-56.6 26-80l8.4-11.5c19.4-26.6 29.6-58.1 29.6-91v-5.5c0-20.5-3.9-40.2-11.6-58.8h1.6c31.1 0 57.1-24.4 58-54.3C448.4 122.4 442.8 108 432.2 97zM432 137.2c-0.6 21.4-19.5 38.8-42 38.8h-54c-22.1 0-40 17.9-40 40v72h16v-72c0-13.2 10.8-24 24-24h34.9c8.6 18.4 13.1 38.2 13.1 58.8v5.5c0 29.5-9.2 57.8-26.5 81.6l-8.4 11.5c-19 26.2-29.1 57.1-29.1 89.4V480h-120v-64.8l59.8-32.2 -7.6-14.1 -94.1 50.7c-5.3 2.9-11.4 4.4-17.4 4.4 -20.2 0-36.7-16.5-36.7-36.7 0-34.4-13.1-66.7-36.8-91.4 19.1-20.8 33.4-45.9 41.5-72.9l3.6-12c5-16.8 13.2-32.1 24-45.8 1.3 2.1 2.7 4.2 4.3 6.2 10.7 13.1 26.5 20.7 43.5 20.7h56c13.2 0 24 10.8 24 24v40h16v-40c0-22.1-17.9-40-40-40h-56c-12.1 0-23.4-5.4-31.1-14.8 -7.6-9.4-10.6-21.8-8-33.9 3.1-15 15.3-27.3 30.4-30.4 12.9-2.7 25.8 0.7 35.4 9.3l10.7-11.9c-10.2-9.2-23.1-14.1-36.6-14.2C188.5 57.4 208.3 40 232 40c12.6 0 24.6 4.9 33.6 13.7l11.2-11.4c-5.5-5.4-11.9-9.7-18.8-12.7C265.6 21 276.4 16 288 16c22.1 0 40 17.9 40 40h16c0-5.5-0.8-10.8-2.3-15.8 0.8 0 1.5-0.2 2.3-0.2 23.8 0 43.5 17.4 47.3 40.1 -10.8 0.1-21.3 3.3-30.2 9.3l8.8 13.3c6.6-4.4 14.2-6.7 22.1-6.7 10.9 0 21.1 4.3 28.7 12.1C428.3 116 432.3 126.3 432 137.2z"/>
        <polygon points="304.2 62.1 291.7 112.4 268 88.7 248.3 157.8 263.7 162.2 276 119.3 300.3 143.6 319.8 65.9 "/>
        <path d="M384 120c0 8.8-7.2 16-16 16v16c17.6 0 32-14.4 32-32H384z"/>
        <path d="M184 120h-16c0 17.6 14.4 32 32 32v-16C191.2 136 184 128.8 184 120z"/>
        <rect x="336" y="136" width="16" height="16"/>
        <rect x="224" y="56" width="16" height="16"/>
        <rect x="264" y="272" width="16" height="16"/>
    </g>
</svg>