<svg xmlns="http://www.w3.org/2000/svg" width="548" height="548" viewBox="0 0 548.4 548.4">
    <defs>
        <style>
            g {
                display: none;
            }

            g:target {
                display: inline;
            }
        </style>
    </defs>
    <g id="vk" fill="#bec941">
        <path d="M507.4 370.5c-1.4-2.3-9.9-20.8-50.8-58.8 -42.9-39.8-37.1-33.3 14.5-102.2 31.5-41.9 44-67.5 40.1-78.5 -3.7-10.4-26.9-7.7-26.9-7.7l-76.9 0.4c0 0-5.7-0.8-10 1.8 -4.1 2.5-6.8 8.3-6.8 8.3s-12.2 32.4-28.4 60c-34.3 58.2-48 61.3-53.6 57.7 -13-8.4-9.8-33.9-9.8-51.9 0-56.4 8.5-79.9-16.7-86 -8.4-2-14.5-3.4-35.9-3.6 -27.5-0.3-50.7 0.1-63.9 6.5 -8.8 4.3-15.5 13.9-11.4 14.4 5.1 0.7 16.6 3.1 22.7 11.4 7.9 10.7 7.6 34.8 7.6 34.8s4.5 66.4-10.6 74.7c-10.4 5.7-24.6-5.9-55.2-58.7 -15.6-27-27.5-57-27.5-57s-2.3-5.6-6.3-8.5c-4.9-3.6-11.8-4.8-11.8-4.8l-73.2 0.4c0 0-11 0.3-15 5.1 -3.6 4.3-0.3 13-0.3 13s57.3 134 122.1 201.5c59.5 61.9 127 57.9 127 57.9h30.6c0 0 9.2-1 14-6.1 4.4-4.7 4.2-13.4 4.2-13.4s-0.6-41.1 18.5-47.1c18.8-6 42.9 39.7 68.5 57.2 19.3 13.3 34 10.4 34 10.4l68.4-1C488.6 400.8 524.4 398.6 507.4 370.5z"/>
    </g>
    <g id="vk-white" fill="#ffffff">
        <path d="M507.4 370.5c-1.4-2.3-9.9-20.8-50.8-58.8 -42.9-39.8-37.1-33.3 14.5-102.2 31.5-41.9 44-67.5 40.1-78.5 -3.7-10.4-26.9-7.7-26.9-7.7l-76.9 0.4c0 0-5.7-0.8-10 1.8 -4.1 2.5-6.8 8.3-6.8 8.3s-12.2 32.4-28.4 60c-34.3 58.2-48 61.3-53.6 57.7 -13-8.4-9.8-33.9-9.8-51.9 0-56.4 8.5-79.9-16.7-86 -8.4-2-14.5-3.4-35.9-3.6 -27.5-0.3-50.7 0.1-63.9 6.5 -8.8 4.3-15.5 13.9-11.4 14.4 5.1 0.7 16.6 3.1 22.7 11.4 7.9 10.7 7.6 34.8 7.6 34.8s4.5 66.4-10.6 74.7c-10.4 5.7-24.6-5.9-55.2-58.7 -15.6-27-27.5-57-27.5-57s-2.3-5.6-6.3-8.5c-4.9-3.6-11.8-4.8-11.8-4.8l-73.2 0.4c0 0-11 0.3-15 5.1 -3.6 4.3-0.3 13-0.3 13s57.3 134 122.1 201.5c59.5 61.9 127 57.9 127 57.9h30.6c0 0 9.2-1 14-6.1 4.4-4.7 4.2-13.4 4.2-13.4s-0.6-41.1 18.5-47.1c18.8-6 42.9 39.7 68.5 57.2 19.3 13.3 34 10.4 34 10.4l68.4-1C488.6 400.8 524.4 398.6 507.4 370.5z"/>
    </g>
    <g id="fb" fill="#bec941">
        <path d="M288 176v-64c0-17.7 14.3-32 32-32h32V0h-64c-53 0-96 43-96 96v80h-64v80h64v256h96V256h64l32-80H288z"/>
    </g>
    <g id="fb-white" fill="#ffffff">
        <path d="M288 176v-64c0-17.7 14.3-32 32-32h32V0h-64c-53 0-96 43-96 96v80h-64v80h64v256h96V256h64l32-80H288z"/>
    </g>
    <g id="instagram" fill="#bec941">
        <path d="M352 0H160C71.6 0 0 71.6 0 160v192c0 88.4 71.6 160 160 160h192c88.4 0 160-71.6 160-160V160C512 71.6 440.4 0 352 0zM464 352c0 61.8-50.2 112-112 112H160c-61.8 0-112-50.2-112-112V160C48 98.2 98.2 48 160 48h192c61.8 0 112 50.2 112 112V352z"/>
        <path d="M256 128c-70.7 0-128 57.3-128 128s57.3 128 128 128 128-57.3 128-128S326.7 128 256 128zM256 336c-44.1 0-80-35.9-80-80 0-44.1 35.9-80 80-80s80 35.9 80 80C336 300.1 300.1 336 256 336z"/>
        <circle cx="393.6" cy="118.4" r="17.1"/>
    </g>
    <g id="instagram-white" fill="#ffffff">
        <path d="M352 0H160C71.6 0 0 71.6 0 160v192c0 88.4 71.6 160 160 160h192c88.4 0 160-71.6 160-160V160C512 71.6 440.4 0 352 0zM464 352c0 61.8-50.2 112-112 112H160c-61.8 0-112-50.2-112-112V160C48 98.2 98.2 48 160 48h192c61.8 0 112 50.2 112 112V352z"/>
        <path d="M256 128c-70.7 0-128 57.3-128 128s57.3 128 128 128 128-57.3 128-128S326.7 128 256 128zM256 336c-44.1 0-80-35.9-80-80 0-44.1 35.9-80 80-80s80 35.9 80 80C336 300.1 300.1 336 256 336z"/>
        <circle cx="393.6" cy="118.4" r="17.1"/>
    </g>
</svg>